<svg width="37" height="34" viewBox="0 0 37 34" fill="none" xmlns="http://www.w3.org/2000/svg">
<path d="M0.155332 1.74161C-0.59935 7.83811 1.36821 14.4379 6.66581 17.9598C8.84765 19.4104 11.5915 20.2767 14.2221 19.9515C16.7597 19.6371 19.238 18.2068 20.056 15.6564C20.7743 13.4111 20.2622 10.4154 18.362 8.88118C17.9214 8.51621 17.3945 8.27078 16.8319 8.16846C16.2693 8.06614 15.6899 8.11037 15.1492 8.2969C13.8016 8.78133 13.1952 10.2603 12.8582 11.5354C11.4675 16.8128 13.0725 22.9997 17.2152 26.6377C21.8592 30.7155 29.1297 30.9894 34.0971 27.3124C34.5809 26.9534 34.647 26.2072 34.5688 25.6526C34.5297 25.3828 34.2211 24.3532 33.74 24.7081C30.0111 27.4702 24.8294 28.0005 20.6153 26.0466C16.7112 24.2344 13.9121 20.1863 13.7221 15.8548C13.6466 14.1208 13.8124 10.8796 16.1317 10.8041C16.5626 10.7923 16.99 10.8842 17.378 11.072C17.7661 11.2599 18.1036 11.5382 18.362 11.8836C18.5849 12.172 18.7559 12.4971 18.8674 12.8443C18.968 13.1216 19.0138 13.4158 19.0022 13.7106C18.9119 15.5107 16.6114 16.7737 14.9592 17.1272C12.71 17.609 10.3772 17.1529 8.33689 16.1287C3.29265 13.5811 0.772554 7.97575 1.45446 2.45948C1.51241 1.99125 1.50702 1.03994 0.984134 0.799747C0.461247 0.559557 0.199804 1.38403 0.155332 1.74431V1.74161Z" fill="#111010"/>
<path d="M36.3329 23.6417C33.9968 23.0649 31.796 22.0358 29.8548 20.6123C29.3723 20.2615 29.0664 21.2695 29.026 21.5569C28.9492 22.0966 29.0098 22.8631 29.4963 23.2166C31.5484 24.6973 33.8714 25.7592 36.3329 26.3418C37.1267 26.5334 37.3127 23.8805 36.3329 23.643V23.6417Z" fill="#111010"/>
<path d="M35.0553 23.781C33.8632 26.5866 33.2406 29.6016 33.2239 32.6505C33.2239 33.0553 33.3398 33.9837 33.8977 33.9999C34.4556 34.016 34.5715 33.004 34.5715 32.6505C34.5861 30.2576 35.0748 27.8914 36.0095 25.689C36.252 25.1155 36.3154 24.3477 36.0095 23.781C35.7669 23.3344 35.2831 23.2412 35.0553 23.781Z" fill="#111010"/>
</svg>
